<?xml version="1.0" encoding="UTF-8"?>
<svg width="22px" height="28px" viewBox="0 0 22 28" version="1.1" xmlns="http://www.w3.org/2000/svg" xmlns:xlink="http://www.w3.org/1999/xlink">
    <!-- Generator: Sketch 46.2 (44496) - http://www.bohemiancoding.com/sketch -->
    <title>feed</title>
    <desc>Created with Sketch.</desc>
    <defs></defs>
    <g id="Symbols" stroke="none" stroke-width="1" fill="none" fill-rule="evenodd">
        <g id="Bars/Tabbar/profile" transform="translate(-130.000000, -5.000000)" fill="#3B444D">
            <path d="M149.75,5.92578125 C150.24219,5.92578125 150.656899,6.09439936 150.994141,6.43164062 C151.331382,6.76888189 151.5,7.18359129 151.5,7.67578125 L151.5,29.6875 C151.5,30.0338559 151.408855,30.3483059 151.226562,30.6308594 C151.04427,30.9134129 150.816408,31.1276034 150.542969,31.2734375 L148.328125,32.3671875 C148.218749,32.4218753 148.095704,32.4674477 147.958984,32.5039062 C147.822265,32.5403648 147.68099,32.5585938 147.535156,32.5585938 C147.334634,32.5585938 147.147787,32.526693 146.974609,32.4628906 C146.801431,32.3990882 146.641928,32.3125005 146.496094,32.203125 L143.214844,29.7421875 C143.160156,29.705729 143.105469,29.6783855 143.050781,29.6601562 C142.996093,29.641927 142.932292,29.6328125 142.859375,29.6328125 C142.786458,29.6328125 142.713542,29.6464842 142.640625,29.6738281 C142.567708,29.701172 142.503907,29.7421872 142.449219,29.796875 L140.480469,31.765625 L140.480469,31.7382812 C140.316405,31.9023446 140.129558,32.0299475 139.919922,32.1210938 C139.710285,32.21224 139.48698,32.2578125 139.25,32.2578125 C139.01302,32.2578125 138.789715,32.21224 138.580078,32.1210938 C138.370442,32.0299475 138.183595,31.9114591 138.019531,31.765625 L135.941406,29.6601562 C135.886718,29.6054685 135.822917,29.5644533 135.75,29.5371094 C135.677083,29.5097655 135.604167,29.4960938 135.53125,29.4960938 C135.476562,29.4960938 135.426433,29.500651 135.380859,29.5097656 C135.335286,29.5188803 135.294271,29.532552 135.257812,29.5507812 L133.042969,30.671875 C132.915364,30.7265628 132.787761,30.7721352 132.660156,30.8085938 C132.532551,30.8450523 132.395834,30.8632812 132.25,30.8632812 C131.776039,30.8632812 131.365887,30.6901059 131.019531,30.34375 C130.673175,29.9973941 130.5,29.587242 130.5,29.1132812 L130.5,7.67578125 C130.5,7.18359129 130.668618,6.76888189 131.005859,6.43164062 C131.343101,6.09439936 131.75781,5.92578125 132.25,5.92578125 L149.75,5.92578125 Z M150.324219,29.6875 L150.324219,7.67578125 C150.324219,7.51171793 150.269532,7.3704433 150.160156,7.25195312 C150.050781,7.13346295 149.914063,7.07421875 149.75,7.07421875 L132.25,7.07421875 C132.085937,7.07421875 131.949219,7.13346295 131.839844,7.25195312 C131.730468,7.3704433 131.675781,7.51171793 131.675781,7.67578125 L131.675781,29.1132812 C131.675781,29.2773446 131.730468,29.414062 131.839844,29.5234375 C131.949219,29.632813 132.085937,29.6875 132.25,29.6875 C132.304688,29.6875 132.354817,29.6829428 132.400391,29.6738281 C132.445964,29.6647135 132.486979,29.6510418 132.523438,29.6328125 L134.738281,28.5117188 L134.738281,28.5390625 C134.847657,28.4661455 134.970702,28.4160158 135.107422,28.3886719 C135.244141,28.361328 135.385416,28.3476562 135.53125,28.3476562 C135.76823,28.3476562 135.991535,28.3932287 136.201172,28.484375 C136.410808,28.5755213 136.597655,28.6940097 136.761719,28.8398438 L138.839844,30.9179688 C138.894532,30.9726565 138.958333,31.018229 139.03125,31.0546875 C139.104167,31.091146 139.177083,31.109375 139.25,31.109375 C139.341146,31.109375 139.418619,31.091146 139.482422,31.0546875 C139.546224,31.018229 139.605468,30.9726565 139.660156,30.9179688 L141.628906,28.9765625 C141.79297,28.8124992 141.979817,28.6848963 142.189453,28.59375 C142.39909,28.5026037 142.622395,28.4570312 142.859375,28.4570312 C143.059897,28.4570312 143.251301,28.488932 143.433594,28.5527344 C143.615886,28.6165368 143.779947,28.7031245 143.925781,28.8125 L147.207031,31.2734375 C147.261719,31.2916668 147.316406,31.314453 147.371094,31.3417969 C147.425782,31.3691408 147.489583,31.3828125 147.5625,31.3828125 C147.598959,31.3828125 147.639974,31.373698 147.685547,31.3554688 C147.73112,31.3372395 147.772135,31.328125 147.808594,31.328125 L150.023438,30.2070312 C150.114584,30.1523435 150.1875,30.0794275 150.242188,29.9882812 C150.296875,29.897135 150.324219,29.7968755 150.324219,29.6875 Z M136.324219,10 C136.488282,10 136.629557,10.054687 136.748047,10.1640625 C136.866537,10.273438 136.925781,10.4101554 136.925781,10.5742188 C136.925781,10.7382821 136.866537,10.8795567 136.748047,10.9980469 C136.629557,11.1165371 136.488282,11.1757812 136.324219,11.1757812 L134,11.1757812 C133.835937,11.1757812 133.699219,11.1165371 133.589844,10.9980469 C133.480468,10.8795567 133.425781,10.7382821 133.425781,10.5742188 C133.425781,10.4101554 133.480468,10.273438 133.589844,10.1640625 C133.699219,10.054687 133.835937,10 134,10 L136.324219,10 Z M148,10 C148.164063,10 148.300781,10.054687 148.410156,10.1640625 C148.519532,10.273438 148.574219,10.4101554 148.574219,10.5742188 C148.574219,10.7382821 148.519532,10.8795567 148.410156,10.9980469 C148.300781,11.1165371 148.164063,11.1757812 148,11.1757812 L138.675781,11.1757812 C138.511718,11.1757812 138.370443,11.1165371 138.251953,10.9980469 C138.133463,10.8795567 138.074219,10.7382821 138.074219,10.5742188 C138.074219,10.4101554 138.133463,10.273438 138.251953,10.1640625 C138.370443,10.054687 138.511718,10 138.675781,10 L148,10 Z M136.324219,14.0742188 C136.488282,14.0742188 136.629557,14.1334629 136.748047,14.2519531 C136.866537,14.3704433 136.925781,14.5117179 136.925781,14.6757812 C136.925781,14.8398446 136.866537,14.976562 136.748047,15.0859375 C136.629557,15.195313 136.488282,15.25 136.324219,15.25 L134,15.25 C133.835937,15.25 133.699219,15.195313 133.589844,15.0859375 C133.480468,14.976562 133.425781,14.8398446 133.425781,14.6757812 C133.425781,14.5117179 133.480468,14.3704433 133.589844,14.2519531 C133.699219,14.1334629 133.835937,14.0742188 134,14.0742188 L136.324219,14.0742188 Z M148,14.0742188 C148.164063,14.0742188 148.300781,14.1334629 148.410156,14.2519531 C148.519532,14.3704433 148.574219,14.5117179 148.574219,14.6757812 C148.574219,14.8398446 148.519532,14.976562 148.410156,15.0859375 C148.300781,15.195313 148.164063,15.25 148,15.25 L138.675781,15.25 C138.511718,15.25 138.370443,15.195313 138.251953,15.0859375 C138.133463,14.976562 138.074219,14.8398446 138.074219,14.6757812 C138.074219,14.5117179 138.133463,14.3704433 138.251953,14.2519531 C138.370443,14.1334629 138.511718,14.0742188 138.675781,14.0742188 L148,14.0742188 Z M136.324219,18.1757812 C136.488282,18.1757812 136.629557,18.2304682 136.748047,18.3398438 C136.866537,18.4492193 136.925781,18.5859367 136.925781,18.75 C136.925781,18.9140633 136.866537,19.0507807 136.748047,19.1601562 C136.629557,19.2695318 136.488282,19.3242188 136.324219,19.3242188 L134,19.3242188 C133.835937,19.3242188 133.699219,19.2695318 133.589844,19.1601562 C133.480468,19.0507807 133.425781,18.9140633 133.425781,18.75 C133.425781,18.5859367 133.480468,18.4492193 133.589844,18.3398438 C133.699219,18.2304682 133.835937,18.1757812 134,18.1757812 L136.324219,18.1757812 Z M148,18.1757812 C148.164063,18.1757812 148.300781,18.2304682 148.410156,18.3398438 C148.519532,18.4492193 148.574219,18.5859367 148.574219,18.75 C148.574219,18.9140633 148.519532,19.0507807 148.410156,19.1601562 C148.300781,19.2695318 148.164063,19.3242188 148,19.3242188 L138.675781,19.3242188 C138.511718,19.3242188 138.370443,19.2695318 138.251953,19.1601562 C138.133463,19.0507807 138.074219,18.9140633 138.074219,18.75 C138.074219,18.5859367 138.133463,18.4492193 138.251953,18.3398438 C138.370443,18.2304682 138.511718,18.1757812 138.675781,18.1757812 L148,18.1757812 Z M136.324219,22.25 C136.488282,22.25 136.629557,22.304687 136.748047,22.4140625 C136.866537,22.523438 136.925781,22.6601554 136.925781,22.8242188 C136.925781,22.9882821 136.866537,23.1295567 136.748047,23.2480469 C136.629557,23.3665371 136.488282,23.4257812 136.324219,23.4257812 L134,23.4257812 C133.835937,23.4257812 133.699219,23.3665371 133.589844,23.2480469 C133.480468,23.1295567 133.425781,22.9882821 133.425781,22.8242188 C133.425781,22.6601554 133.480468,22.523438 133.589844,22.4140625 C133.699219,22.304687 133.835937,22.25 134,22.25 L136.324219,22.25 Z M148,22.25 C148.164063,22.25 148.300781,22.304687 148.410156,22.4140625 C148.519532,22.523438 148.574219,22.6601554 148.574219,22.8242188 C148.574219,22.9882821 148.519532,23.1295567 148.410156,23.2480469 C148.300781,23.3665371 148.164063,23.4257812 148,23.4257812 L138.675781,23.4257812 C138.511718,23.4257812 138.370443,23.3665371 138.251953,23.2480469 C138.133463,23.1295567 138.074219,22.9882821 138.074219,22.8242188 C138.074219,22.6601554 138.133463,22.523438 138.251953,22.4140625 C138.370443,22.304687 138.511718,22.25 138.675781,22.25 L148,22.25 Z" id="feed"></path>
        </g>
    </g>
</svg>