<?xml version="1.0" encoding="UTF-8"?>
<svg width="28px" height="28px" viewBox="0 0 28 28" version="1.1" xmlns="http://www.w3.org/2000/svg" xmlns:xlink="http://www.w3.org/1999/xlink">
    <!-- Generator: Sketch 46.2 (44496) - http://www.bohemiancoding.com/sketch -->
    <title>marketplace</title>
    <desc>Created with Sketch.</desc>
    <defs></defs>
    <g id="Symbols" stroke="none" stroke-width="1" fill="none" fill-rule="evenodd">
        <g id="Bars/Tabbar/profile" transform="translate(-219.000000, -5.000000)" fill="#3B444D">
            <path d="M243.5,5.92578125 C244.302087,5.92578125 244.990232,6.20833051 245.564453,6.7734375 C246.138675,7.33854449 246.425781,8.02213141 246.425781,8.82421875 L246.425781,16.6171875 C246.425781,17.0182312 246.348308,17.3964826 246.193359,17.7519531 C246.038411,18.1074237 245.82422,18.4127591 245.550781,18.6679688 L232.152344,32.09375 C231.878905,32.3671889 231.564455,32.5768222 231.208984,32.7226562 C230.853514,32.8684903 230.475262,32.9414062 230.074219,32.9414062 C229.673175,32.9414062 229.294924,32.8684903 228.939453,32.7226562 C228.583983,32.5768222 228.278647,32.3671889 228.023438,32.09375 L220.230469,24.3007812 C219.975259,24.0455716 219.770183,23.7402362 219.615234,23.3847656 C219.460286,23.0292951 219.382812,22.6510437 219.382812,22.25 C219.382812,21.8489563 219.460286,21.4707049 219.615234,21.1152344 C219.770183,20.7597638 219.975259,20.4453139 220.230469,20.171875 L233.65625,6.7734375 C233.91146,6.49999863 234.216795,6.29036531 234.572266,6.14453125 C234.927736,5.99869719 235.305988,5.92578125 235.707031,5.92578125 L243.5,5.92578125 Z M245.25,16.6171875 L245.25,8.82421875 C245.25,8.35025805 245.081382,7.9401059 244.744141,7.59375 C244.406899,7.2473941 243.99219,7.07421875 243.5,7.07421875 L235.707031,7.07421875 C235.470051,7.07421875 235.246746,7.11979121 235.037109,7.2109375 C234.827473,7.30208379 234.640626,7.42968668 234.476562,7.59375 L221.078125,21.0195312 C220.914062,21.1653653 220.786459,21.3476552 220.695312,21.5664062 C220.604166,21.7851573 220.558594,22.0130196 220.558594,22.25 C220.558594,22.4869804 220.604166,22.7148427 220.695312,22.9335938 C220.786459,23.1523448 220.914062,23.3346347 221.078125,23.4804688 L228.84375,31.2734375 C229.007813,31.4192716 229.19466,31.53776 229.404297,31.6289062 C229.613933,31.7200525 229.837238,31.765625 230.074219,31.765625 C230.311199,31.765625 230.539061,31.7200525 230.757812,31.6289062 C230.976564,31.53776 231.167968,31.4192716 231.332031,31.2734375 L244.730469,17.8476562 C244.894532,17.6835929 245.022135,17.4967458 245.113281,17.2871094 C245.204428,17.0774729 245.25,16.8541679 245.25,16.6171875 Z M240.574219,9.42578125 C241.230472,9.42578125 241.786456,9.65364355 242.242188,10.109375 C242.697919,10.5651064 242.925781,11.111976 242.925781,11.75 C242.925781,12.388024 242.697919,12.9348936 242.242188,13.390625 C241.786456,13.8463564 241.230472,14.0742188 240.574219,14.0742188 C239.936195,14.0742188 239.389325,13.8463564 238.933594,13.390625 C238.477862,12.9348936 238.25,12.388024 238.25,11.75 C238.25,11.111976 238.477862,10.5651064 238.933594,10.109375 C239.389325,9.65364355 239.936195,9.42578125 240.574219,9.42578125 Z M240.574219,12.9257812 C240.902345,12.9257812 241.180337,12.8118501 241.408203,12.5839844 C241.636069,12.3561187 241.75,12.0781266 241.75,11.75 C241.75,11.4218734 241.636069,11.1438813 241.408203,10.9160156 C241.180337,10.6881499 240.902345,10.5742188 240.574219,10.5742188 C240.264321,10.5742188 239.995444,10.6881499 239.767578,10.9160156 C239.539712,11.1438813 239.425781,11.4218734 239.425781,11.75 C239.425781,12.0781266 239.539712,12.3561187 239.767578,12.5839844 C239.995444,12.8118501 240.264321,12.9257812 240.574219,12.9257812 Z M226.765625,21.265625 L226.738281,21.265625 C226.792969,21.2109372 226.852213,21.169922 226.916016,21.1425781 C226.979818,21.1152342 227.048177,21.1015625 227.121094,21.1015625 C227.285157,21.1015625 227.426432,21.1608067 227.544922,21.2792969 C227.663412,21.3977871 227.722656,21.5390617 227.722656,21.703125 C227.722656,21.776042 227.708985,21.8444007 227.681641,21.9082031 C227.654297,21.9720055 227.622396,22.0312497 227.585938,22.0859375 L225.835938,23.8359375 C225.78125,23.8906253 225.712891,23.9361977 225.630859,23.9726562 C225.548828,24.0091148 225.46224,24.0273438 225.371094,24.0273438 C225.22526,24.0273438 225.0931,23.9726568 224.974609,23.8632812 C224.856119,23.7539057 224.796875,23.6171883 224.796875,23.453125 C224.796875,23.3619787 224.815104,23.275391 224.851562,23.1933594 C224.888021,23.1113277 224.942708,23.0520835 225.015625,23.015625 L226.765625,21.265625 Z M230.265625,24.765625 L230.238281,24.765625 C230.292969,24.7109372 230.352213,24.669922 230.416016,24.6425781 C230.479818,24.6152342 230.548177,24.6015625 230.621094,24.6015625 C230.785157,24.6015625 230.926432,24.6608067 231.044922,24.7792969 C231.163412,24.8977871 231.222656,25.0390617 231.222656,25.203125 C231.222656,25.276042 231.208985,25.3444007 231.181641,25.4082031 C231.154297,25.4720055 231.122396,25.5312497 231.085938,25.5859375 L229.335938,27.3359375 C229.28125,27.3906253 229.212891,27.4361977 229.130859,27.4726562 C229.048828,27.5091148 228.96224,27.5273438 228.871094,27.5273438 C228.72526,27.5273438 228.5931,27.4726568 228.474609,27.3632812 C228.356119,27.2539057 228.296875,27.1171883 228.296875,26.953125 C228.296875,26.8619787 228.315104,26.775391 228.351562,26.6933594 C228.388021,26.6113277 228.442708,26.5520835 228.515625,26.515625 L230.265625,24.765625 Z M235.761719,13.6914062 C235.816407,13.746094 235.857422,13.8053382 235.884766,13.8691406 C235.91211,13.932943 235.925781,14.0013017 235.925781,14.0742188 C235.925781,14.165365 235.907552,14.2473955 235.871094,14.3203125 C235.834635,14.3932295 235.789063,14.457031 235.734375,14.5117188 L229.308594,20.3359375 C229.253906,20.3906253 229.194662,20.4316405 229.130859,20.4589844 C229.067057,20.4863283 228.998698,20.5 228.925781,20.5 C228.761718,20.5 228.620443,20.445313 228.501953,20.3359375 C228.383463,20.226562 228.324219,20.0898446 228.324219,19.9257812 C228.324219,19.834635 228.342448,19.7526045 228.378906,19.6796875 C228.415365,19.6067705 228.460937,19.542969 228.515625,19.4882812 L234.941406,13.6640625 C234.996094,13.6093747 235.055338,13.5683595 235.119141,13.5410156 C235.182943,13.5136717 235.251302,13.5 235.324219,13.5 C235.415365,13.5 235.497395,13.518229 235.570312,13.5546875 C235.64323,13.591146 235.707031,13.6367185 235.761719,13.6914062 Z M238.441406,17.1640625 C238.496094,17.1093747 238.555338,17.0683595 238.619141,17.0410156 C238.682943,17.0136717 238.751302,17 238.824219,17 C238.988282,17 239.129557,17.054687 239.248047,17.1640625 C239.366537,17.273438 239.425781,17.4101554 239.425781,17.5742188 C239.425781,17.665365 239.407552,17.7473955 239.371094,17.8203125 C239.334635,17.8932295 239.289063,17.957031 239.234375,18.0117188 L232.808594,23.8359375 C232.753906,23.8906253 232.694662,23.9316405 232.630859,23.9589844 C232.567057,23.9863283 232.498698,24 232.425781,24 C232.261718,24 232.120443,23.945313 232.001953,23.8359375 C231.883463,23.726562 231.824219,23.5898446 231.824219,23.4257812 C231.824219,23.334635 231.842448,23.2526045 231.878906,23.1796875 C231.915365,23.1067705 231.960937,23.042969 232.015625,22.9882812 L238.441406,17.1640625 Z" id="marketplace"></path>
        </g>
    </g>
</svg>