<?xml version="1.0" encoding="UTF-8"?>
<svg width="28px" height="27px" viewBox="0 0 28 27" version="1.1" xmlns="http://www.w3.org/2000/svg" xmlns:xlink="http://www.w3.org/1999/xlink">
    <!-- Generator: Sketch 46.2 (44496) - http://www.bohemiancoding.com/sketch -->
    <title>settings</title>
    <desc>Created with Sketch.</desc>
    <defs></defs>
    <g id="Symbols" stroke="none" stroke-width="1" fill="none" fill-rule="evenodd">
        <g id="Bars/Tabbar/profile" transform="translate(-311.000000, -6.000000)" fill="#3B444D">
            <g id="Tab-4" transform="translate(275.000000, 0.000000)">
                <path d="M61.6757812,15.8242188 C62.149742,15.8242188 62.5598941,15.9973941 62.90625,16.34375 C63.2526059,16.6901059 63.4257812,17.100258 63.4257812,17.5742188 L63.4257812,21.0742188 C63.4257812,21.5664087 63.2526059,21.9811181 62.90625,22.3183594 C62.5598941,22.6556006 62.149742,22.8242188 61.6757812,22.8242188 L60.3085938,22.8242188 C60.1992182,22.8242188 60.0944015,22.8606767 59.9941406,22.9335938 C59.8938797,23.0065108 59.825521,23.0976557 59.7890625,23.2070312 L59.7617188,23.2617188 C59.5611969,23.7356795 59.3333346,24.1914041 59.078125,24.6289062 C58.8229154,25.0664084 58.5403661,25.4765606 58.2304688,25.859375 C58.1940102,25.8958335 58.1666668,25.9459632 58.1484375,26.0097656 C58.1302082,26.073568 58.1210938,26.1419267 58.1210938,26.2148438 C58.1210938,26.2695315 58.125651,26.3196612 58.1347656,26.3652344 C58.1438803,26.4108075 58.1666665,26.4518227 58.203125,26.4882812 L58.8867188,27.6640625 C58.9596358,27.7916673 59.0143227,27.9283847 59.0507812,28.0742188 C59.0872398,28.2200528 59.1054688,28.3749992 59.1054688,28.5390625 C59.1054688,28.8671891 59.0279956,29.1634101 58.8730469,29.4277344 C58.7180982,29.6920586 58.5039076,29.8971347 58.2304688,30.0429688 L55.2226562,31.7929688 C55.0950514,31.8658858 54.9537768,31.92513 54.7988281,31.9707031 C54.6438794,32.0162763 54.4843758,32.0390625 54.3203125,32.0390625 C54.0104151,32.0390625 53.7187514,31.9570321 53.4453125,31.7929688 C53.1718736,31.6289054 52.9622403,31.4192721 52.8164062,31.1640625 L52.1328125,29.9882812 C52.0781247,29.9153642 52.0052088,29.8515628 51.9140625,29.796875 C51.8229162,29.7421872 51.7317713,29.7148438 51.640625,29.7148438 L51.5585938,29.7148438 L51.6132812,29.7148438 C51.3398424,29.7513023 51.0709649,29.7786457 50.8066406,29.796875 C50.5423164,29.8151043 50.2825534,29.8242188 50.0273438,29.8242188 C49.7539049,29.8242188 49.4850274,29.8151043 49.2207031,29.796875 C48.9563789,29.7786457 48.7148448,29.7513023 48.4960938,29.7148438 L48.4140625,29.7148438 C48.304687,29.7148438 48.2044275,29.7421872 48.1132812,29.796875 C48.022135,29.8515628 47.949219,29.9153642 47.8945312,29.9882812 L47.2109375,31.1640625 C47.0651034,31.4375014 46.8554701,31.6516919 46.5820312,31.8066406 C46.3085924,31.9615893 46.0169286,32.0390625 45.7070312,32.0390625 C45.5429679,32.0390625 45.3834643,32.0162763 45.2285156,31.9707031 C45.0735669,31.92513 44.9414068,31.8658858 44.8320312,31.7929688 L41.796875,30.0429688 L41.7695312,30.0429688 C41.5143216,29.8971347 41.3092456,29.6920586 41.1542969,29.4277344 C40.9993482,29.1634101 40.921875,28.8671891 40.921875,28.5390625 C40.921875,28.3749992 40.940104,28.2200528 40.9765625,28.0742188 C41.013021,27.9283847 41.067708,27.7916673 41.140625,27.6640625 L41.8242188,26.4882812 C41.8606773,26.4518227 41.8834635,26.4108075 41.8925781,26.3652344 C41.9016928,26.3196612 41.90625,26.2695315 41.90625,26.2148438 C41.90625,26.1419267 41.8925783,26.073568 41.8652344,26.0097656 C41.8378905,25.9459632 41.8059898,25.8958335 41.7695312,25.859375 L41.796875,25.859375 C41.4869776,25.4765606 41.1998711,25.0618512 40.9355469,24.6152344 C40.6712226,24.1686176 40.4388031,23.6992212 40.2382812,23.2070312 L40.2382812,23.1796875 C40.1835935,23.0885412 40.1106775,23.0065108 40.0195312,22.9335938 C39.928385,22.8606767 39.8190111,22.8242188 39.6914062,22.8242188 L38.3242188,22.8242188 C37.850258,22.8242188 37.4401059,22.6556006 37.09375,22.3183594 C36.7473941,21.9811181 36.5742188,21.5664087 36.5742188,21.0742188 L36.5742188,17.5742188 C36.5742188,17.100258 36.7473941,16.6901059 37.09375,16.34375 C37.4401059,15.9973941 37.850258,15.8242188 38.3242188,15.8242188 L39.6914062,15.8242188 C39.8007818,15.8242188 39.9055985,15.792318 40.0058594,15.7285156 C40.1061203,15.6647132 40.174479,15.5781255 40.2109375,15.46875 L40.2382812,15.4140625 C40.4388031,14.9401018 40.6666654,14.4843772 40.921875,14.046875 C41.1770846,13.6093728 41.4596339,13.1992207 41.7695312,12.8164062 C41.8059898,12.7617185 41.8333332,12.7070315 41.8515625,12.6523438 C41.8697918,12.597656 41.8789062,12.5338545 41.8789062,12.4609375 C41.8789062,12.4062497 41.874349,12.35612 41.8652344,12.3105469 C41.8561197,12.2649737 41.8333335,12.214844 41.796875,12.1601562 L41.1132812,11.0117188 C41.0403642,10.8841139 40.9856773,10.7473966 40.9492188,10.6015625 C40.9127602,10.4557284 40.8945312,10.3007821 40.8945312,10.1367188 C40.8945312,9.80859211 40.9720044,9.51237111 41.1269531,9.24804688 C41.2819018,8.98372264 41.4960924,8.76953207 41.7695312,8.60546875 L44.7773438,6.85546875 C44.9049486,6.78255172 45.0462232,6.72786477 45.2011719,6.69140625 C45.3561206,6.65494773 45.5156242,6.63671875 45.6796875,6.63671875 C45.9895849,6.63671875 46.2812486,6.71419193 46.5546875,6.86914062 C46.8281264,7.02408932 47.0377597,7.23827988 47.1835938,7.51171875 L47.8671875,8.66015625 C47.9218753,8.75130254 47.9947912,8.82421848 48.0859375,8.87890625 C48.1770838,8.93359402 48.2682287,8.9609375 48.359375,8.9609375 L48.4414062,8.9609375 L48.3867188,8.9609375 C48.6601576,8.92447898 48.9290351,8.89257826 49.1933594,8.86523438 C49.4576836,8.83789049 49.7174466,8.82421875 49.9726562,8.82421875 C50.2460951,8.82421875 50.5149726,8.83789049 50.7792969,8.86523438 C51.0436211,8.89257826 51.2851552,8.92447898 51.5039062,8.9609375 L51.5859375,8.9609375 C51.695313,8.9609375 51.7955725,8.93359402 51.8867188,8.87890625 C51.977865,8.82421848 52.050781,8.75130254 52.1054688,8.66015625 L52.7890625,7.51171875 L52.7890625,7.484375 C52.9348966,7.22916539 53.1445299,7.02408932 53.4179688,6.86914062 C53.6914076,6.71419193 53.9830714,6.63671875 54.2929688,6.63671875 C54.4570321,6.63671875 54.6165357,6.65494773 54.7714844,6.69140625 C54.9264331,6.72786477 55.0585932,6.78255172 55.1679688,6.85546875 L58.203125,8.60546875 L58.2304688,8.60546875 C58.4856784,8.76953207 58.6907544,8.98372264 58.8457031,9.24804688 C59.0006518,9.51237111 59.078125,9.80859211 59.078125,10.1367188 C59.078125,10.3007821 59.059896,10.4557284 59.0234375,10.6015625 C58.986979,10.7473966 58.932292,10.8841139 58.859375,11.0117188 L58.1757812,12.1601562 C58.1393227,12.214844 58.1165365,12.2649737 58.1074219,12.3105469 C58.0983072,12.35612 58.09375,12.4062497 58.09375,12.4609375 C58.09375,12.5156253 58.1074217,12.5748695 58.1347656,12.6386719 C58.1621095,12.7024743 58.1940102,12.7617185 58.2304688,12.8164062 L58.203125,12.7890625 C58.5130224,13.1901062 58.8001289,13.6093728 59.0644531,14.046875 C59.3287774,14.4843772 59.5611969,14.9583308 59.7617188,15.46875 C59.8164065,15.5781255 59.8893225,15.6647132 59.9804688,15.7285156 C60.071615,15.792318 60.1809889,15.8242188 60.3085938,15.8242188 L61.6757812,15.8242188 Z M62.25,21.0742188 L62.25,17.5742188 C62.25,17.4101554 62.195313,17.273438 62.0859375,17.1640625 C61.976562,17.054687 61.8398446,17 61.6757812,17 L60.28125,17 C59.9166648,17 59.5885431,16.8997406 59.296875,16.6992188 C59.0052069,16.4986969 58.7955736,16.2343766 58.6679688,15.90625 L58.640625,15.8515625 C58.4765617,15.4322896 58.2806001,15.0312519 58.0527344,14.6484375 C57.8248687,14.2656231 57.5742201,13.9101579 57.3007812,13.5820312 C57.1731764,13.4179679 57.0774743,13.2447926 57.0136719,13.0625 C56.9498695,12.8802074 56.9179688,12.6888031 56.9179688,12.4882812 C56.9179688,12.3242179 56.9361977,12.1692716 56.9726562,12.0234375 C57.0091148,11.8776034 57.0638017,11.7408861 57.1367188,11.6132812 L57.8476562,10.4375 L57.8203125,10.4375 C57.856771,10.4010415 57.8795572,10.355469 57.8886719,10.3007812 C57.8977865,10.2460935 57.9023438,10.200521 57.9023438,10.1640625 C57.9023438,10.054687 57.8750003,9.95442754 57.8203125,9.86328125 C57.7656247,9.77213496 57.7018233,9.69921902 57.6289062,9.64453125 L54.59375,7.89453125 C54.5390622,7.87630199 54.4889325,7.85807301 54.4433594,7.83984375 C54.3977862,7.82161449 54.3476565,7.8125 54.2929688,7.8125 C54.1835932,7.8125 54.0833338,7.83984348 53.9921875,7.89453125 C53.9010412,7.94921902 53.8281253,8.02213496 53.7734375,8.11328125 L53.0898438,9.2890625 C52.9440097,9.54427211 52.7389336,9.74934818 52.4746094,9.90429688 C52.2102851,10.0592456 51.9140641,10.1367188 51.5859375,10.1367188 L51.3398438,10.1367188 L51.3945312,10.1367188 C51.1757802,10.1002602 50.9479179,10.0729168 50.7109375,10.0546875 C50.4739571,10.0364582 50.2369804,10.0273438 50,10.0273438 C49.7630196,10.0273438 49.5260429,10.0364582 49.2890625,10.0546875 C49.0520821,10.0729168 48.8333343,10.1002602 48.6328125,10.1367188 L48.3867188,10.1367188 C48.0768214,10.1367188 47.7897149,10.0592456 47.5253906,9.90429688 C47.2610664,9.74934818 47.0468758,9.54427211 46.8828125,9.2890625 L46.1992188,8.11328125 C46.144531,8.02213496 46.071615,7.94921902 45.9804688,7.89453125 C45.8893225,7.83984348 45.789063,7.8125 45.6796875,7.8125 C45.6249997,7.8125 45.57487,7.82161449 45.5292969,7.83984375 C45.4837237,7.85807301 45.4427085,7.87630199 45.40625,7.89453125 L42.3710938,9.64453125 C42.2799475,9.69921902 42.2070315,9.77213496 42.1523438,9.86328125 C42.097656,9.95442754 42.0703125,10.054687 42.0703125,10.1640625 C42.0703125,10.200521 42.0748697,10.2460935 42.0839844,10.3007812 C42.093099,10.355469 42.1158852,10.4010415 42.1523438,10.4375 L42.8359375,11.6132812 C42.9088545,11.7408861 42.9680987,11.8776034 43.0136719,12.0234375 C43.059245,12.1692716 43.0820312,12.3242179 43.0820312,12.4882812 C43.0820312,12.6888031 43.0455733,12.8802074 42.9726562,13.0625 C42.8997392,13.2447926 42.8085943,13.4179679 42.6992188,13.5820312 L42.6992188,13.5546875 C42.4257799,13.9010434 42.1751313,14.2656231 41.9472656,14.6484375 C41.7193999,15.0312519 41.5143238,15.4505186 41.3320312,15.90625 L41.3046875,15.90625 C41.1770827,16.2343766 40.9674494,16.4986969 40.6757812,16.6992188 C40.3841131,16.8997406 40.0559914,17 39.6914062,17 L38.3242188,17 C38.1601554,17 38.023438,17.054687 37.9140625,17.1640625 C37.804687,17.273438 37.75,17.4101554 37.75,17.5742188 L37.75,21.0742188 C37.75,21.2382821 37.804687,21.3795567 37.9140625,21.4980469 C38.023438,21.6165371 38.1601554,21.6757812 38.3242188,21.6757812 L39.71875,21.6757812 C40.0833352,21.6757812 40.4114569,21.7760407 40.703125,21.9765625 C40.9947931,22.1770843 41.2044264,22.4414046 41.3320312,22.7695312 L41.359375,22.8242188 C41.5234383,23.2434917 41.7193999,23.6445293 41.9472656,24.0273438 C42.1751313,24.4101582 42.4257799,24.7656234 42.6992188,25.09375 C42.8268236,25.2395841 42.9225257,25.4082022 42.9863281,25.5996094 C43.0501305,25.7910166 43.0820312,25.9869782 43.0820312,26.1875 C43.0820312,26.3515633 43.0638023,26.5065097 43.0273438,26.6523438 C42.9908852,26.7981778 42.9361983,26.9348952 42.8632812,27.0625 L42.1523438,28.2109375 L42.1796875,28.2109375 C42.143229,28.2656253 42.1204428,28.315755 42.1113281,28.3613281 C42.1022135,28.4069013 42.0976562,28.457031 42.0976562,28.5117188 C42.0976562,28.6210943 42.1249997,28.7213537 42.1796875,28.8125 C42.2343753,28.9036463 42.2981767,28.9765622 42.3710938,29.03125 L45.40625,30.78125 C45.4609378,30.7994793 45.5110675,30.8177082 45.5566406,30.8359375 C45.6022138,30.8541668 45.6523435,30.8632812 45.7070312,30.8632812 C45.8164068,30.8632812 45.9166662,30.8359378 46.0078125,30.78125 C46.0989588,30.7265622 46.1718747,30.6536463 46.2265625,30.5625 L46.9101562,29.3867188 C47.0559903,29.1315091 47.2610664,28.9218758 47.5253906,28.7578125 C47.7897149,28.5937492 48.0859359,28.5117188 48.4140625,28.5117188 C48.450521,28.5117188 48.4915362,28.516276 48.5371094,28.5253906 C48.5826825,28.5345053 48.6236977,28.5390625 48.6601562,28.5390625 L48.6054688,28.5390625 C48.8242198,28.575521 49.0520821,28.6028645 49.2890625,28.6210938 C49.5260429,28.639323 49.7630196,28.6484375 50,28.6484375 C50.2369804,28.6484375 50.4739571,28.639323 50.7109375,28.6210938 C50.9479179,28.6028645 51.1666657,28.575521 51.3671875,28.5390625 C51.403646,28.5390625 51.440104,28.5345053 51.4765625,28.5253906 C51.513021,28.516276 51.5585935,28.5117188 51.6132812,28.5117188 C51.9231786,28.5117188 52.2102851,28.5937492 52.4746094,28.7578125 C52.7389336,28.9218758 52.9531242,29.1315091 53.1171875,29.3867188 L53.8007812,30.5625 C53.855469,30.6536463 53.928385,30.7265622 54.0195312,30.78125 C54.1106775,30.8359378 54.210937,30.8632812 54.3203125,30.8632812 C54.3750003,30.8632812 54.42513,30.8541668 54.4707031,30.8359375 C54.5162763,30.8177082 54.5572915,30.7994793 54.59375,30.78125 L57.6289062,29.03125 C57.7200525,28.9765622 57.7929685,28.9036463 57.8476562,28.8125 C57.902344,28.7213537 57.9296875,28.6210943 57.9296875,28.5117188 C57.9296875,28.457031 57.9251303,28.4069013 57.9160156,28.3613281 C57.906901,28.315755 57.8841148,28.2656253 57.8476562,28.2109375 L57.1640625,27.0625 C57.0911455,26.9348952 57.0319013,26.7981778 56.9863281,26.6523438 C56.940755,26.5065097 56.9179688,26.3515633 56.9179688,26.1875 C56.9179688,25.9869782 56.9544267,25.7910166 57.0273438,25.5996094 C57.1002608,25.4082022 57.1914057,25.2395841 57.3007812,25.09375 L57.3007812,25.1210938 C57.5742201,24.7747379 57.8248687,24.4056009 58.0527344,24.0136719 C58.2806001,23.6217428 58.4856762,23.2070334 58.6679688,22.7695312 L58.6953125,22.7421875 C58.8229173,22.4322901 59.0325506,22.1770843 59.3242188,21.9765625 C59.6158869,21.7760407 59.9440086,21.6757812 60.3085938,21.6757812 L61.6757812,21.6757812 C61.8398446,21.6757812 61.976562,21.6165371 62.0859375,21.4980469 C62.195313,21.3795567 62.25,21.2382821 62.25,21.0742188 Z M50,14.6757812 C51.2942773,14.6757812 52.3971309,15.1315059 53.3085938,16.0429688 C54.2200566,16.9544316 54.6757812,18.0481707 54.6757812,19.3242188 C54.6757812,20.6184961 54.2200566,21.7213496 53.3085938,22.6328125 C52.3971309,23.5442754 51.2942773,24 50,24 C48.7057227,24 47.6028691,23.5442754 46.6914062,22.6328125 C45.7799434,21.7213496 45.3242188,20.6184961 45.3242188,19.3242188 C45.3242188,18.0481707 45.7799434,16.9544316 46.6914062,16.0429688 C47.6028691,15.1315059 48.7057227,14.6757812 50,14.6757812 Z M50,22.8242188 C50.9661507,22.8242188 51.7910122,22.4824253 52.4746094,21.7988281 C53.1582065,21.115231 53.5,20.2903694 53.5,19.3242188 C53.5,18.3580681 53.1582065,17.5332065 52.4746094,16.8496094 C51.7910122,16.1660122 50.9661507,15.8242188 50,15.8242188 C49.0338493,15.8242188 48.2089878,16.1660122 47.5253906,16.8496094 C46.8417935,17.5332065 46.5,18.3580681 46.5,19.3242188 C46.5,20.2903694 46.8417935,21.115231 47.5253906,21.7988281 C48.2089878,22.4824253 49.0338493,22.8242188 50,22.8242188 Z" id="settings"></path>
            </g>
        </g>
    </g>
</svg>