<?xml version="1.0" encoding="UTF-8"?>
<svg width="14px" height="17px" viewBox="0 0 14 17" version="1.1" xmlns="http://www.w3.org/2000/svg" xmlns:xlink="http://www.w3.org/1999/xlink">
    <!-- Generator: Sketch 46.2 (44496) - http://www.bohemiancoding.com/sketch -->
    <title>Page 1</title>
    <desc>Created with Sketch.</desc>
    <defs></defs>
    <g id="Symbols" stroke="none" stroke-width="1" fill="none" fill-rule="evenodd">
        <g id="Transaction-/-Confirmed" transform="translate(-347.000000, -167.000000)" fill="#5D78CC">
            <g id="Page-1" transform="translate(347.000000, 167.000000)">
                <polygon id="Fill-1" points="10.3329 5 10.3329 6 12.9999 6 12.9999 16 0.9999 16 0.9999 6 3.6669 6 3.6669 5 -0.0001 5 -0.0001 17 13.9999 17 13.9999 5"></polygon>
                <path d="M6.2695,0.2989 L3.7555,2.4789 C3.7205,2.5139 3.6915,2.5579 3.6675,2.6109 C3.6445,2.6629 3.6325,2.7129 3.6325,2.7599 C3.6325,2.8649 3.6675,2.9559 3.7385,3.0319 C3.8085,3.1089 3.8965,3.1469 4.0015,3.1469 C4.0485,3.1469 4.0955,3.1379 4.1425,3.1199 C4.1895,3.1029 4.2245,3.0819 4.2485,3.0589 L6.6385,0.9669 L6.6385,12.1469 C6.6385,12.2519 6.6735,12.3399 6.7445,12.4099 C6.8145,12.4809 6.9025,12.5159 7.0075,12.5159 C7.1135,12.5159 7.2045,12.4809 7.2805,12.4099 C7.3565,12.3399 7.3945,12.2519 7.3945,12.1469 L7.3945,0.9669 L9.7675,3.0409 C9.8025,3.0759 9.8405,3.1029 9.8815,3.1199 C9.9225,3.1379 9.9665,3.1469 10.0135,3.1469 C10.1195,3.1469 10.2075,3.1089 10.2775,3.0319 C10.3475,2.9559 10.3825,2.8649 10.3825,2.7599 C10.3825,2.7009 10.3715,2.6489 10.3475,2.6019 C10.3245,2.5549 10.2945,2.5139 10.2595,2.4789 L7.7635,0.2989 C7.6695,0.2049 7.5585,0.1319 7.4295,0.0789 C7.3005,0.0269 7.1605,-0.0001 7.0075,-0.0001 C6.8675,-0.0001 6.7325,0.0269 6.6035,0.0789 C6.4745,0.1319 6.3635,0.2049 6.2695,0.2989" id="Fill-2"></path>
            </g>
        </g>
    </g>
</svg>