<?xml version="1.0" encoding="UTF-8"?>
<svg width="80px" height="80px" viewBox="0 0 80 80" version="1.1" xmlns="http://www.w3.org/2000/svg" xmlns:xlink="http://www.w3.org/1999/xlink">
    <!-- Generator: Sketch 46.2 (44496) - http://www.bohemiancoding.com/sketch -->
    <title>success</title>
    <desc>Created with Sketch.</desc>
    <defs></defs>
    <g id="Refined" stroke="none" stroke-width="1" fill="none" fill-rule="evenodd">
        <g id="AlertScreen-Copy" transform="translate(-148.000000, -228.000000)" fill="#5D78CC">
            <path d="M188,228.75 C193.468777,228.75 198.611955,229.791656 203.429688,231.875 C208.24742,233.958344 212.446597,236.790347 216.027344,240.371094 C219.608091,243.951841 222.423818,248.134742 224.474609,252.919922 C226.525401,257.705102 227.550781,262.832004 227.550781,268.300781 C227.550781,273.769559 226.525401,278.912736 224.474609,283.730469 C222.423818,288.548201 219.608091,292.747378 216.027344,296.328125 C212.446597,299.908872 208.24742,302.740875 203.429688,304.824219 C198.611955,306.907562 193.468777,307.949219 188,307.949219 C182.531223,307.949219 177.388045,306.907562 172.570312,304.824219 C167.75258,302.740875 163.553403,299.908872 159.972656,296.328125 C156.391909,292.747378 153.576182,288.548201 151.525391,283.730469 C149.474599,278.912736 148.449219,273.769559 148.449219,268.300781 C148.449219,262.832004 149.474599,257.705102 151.525391,252.919922 C153.576182,248.134742 156.391909,243.951841 159.972656,240.371094 C163.553403,236.790347 167.75258,233.958344 172.570312,231.875 C177.388045,229.791656 182.531223,228.75 188,228.75 Z M188,303.75 C192.882837,303.75 197.472635,302.822275 201.769531,300.966797 C206.066428,299.111319 209.826156,296.588558 213.048828,293.398438 C216.2715,290.208317 218.810538,286.448589 220.666016,282.119141 C222.521494,277.789692 223.449219,273.183618 223.449219,268.300781 C223.449219,263.417944 222.521494,258.828146 220.666016,254.53125 C218.810538,250.234354 216.2715,246.490901 213.048828,243.300781 C209.826156,240.110661 206.066428,237.5879 201.769531,235.732422 C197.472635,233.876944 192.882837,232.949219 188,232.949219 C183.117163,232.949219 178.527365,233.876944 174.230469,235.732422 C169.933572,237.5879 166.173844,240.110661 162.951172,243.300781 C159.7285,246.490901 157.189462,250.234354 155.333984,254.53125 C153.478506,258.828146 152.550781,263.417944 152.550781,268.300781 C152.550781,273.183618 153.478506,277.789692 155.333984,282.119141 C157.189462,286.448589 159.7285,290.208317 162.951172,293.398438 C166.173844,296.588558 169.933572,299.111319 174.230469,300.966797 C178.527365,302.822275 183.117163,303.75 188,303.75 Z M205.089844,252.480469 C205.285157,252.220051 205.529295,252.008464 205.822266,251.845703 C206.115236,251.682942 206.457029,251.601562 206.847656,251.601562 C207.433597,251.601562 207.921873,251.796873 208.3125,252.1875 C208.703127,252.578127 208.898438,253.066403 208.898438,253.652344 C208.898438,253.912762 208.865886,254.1569 208.800781,254.384766 C208.735677,254.612631 208.60547,254.824218 208.410156,255.019531 L185.558594,286.269531 C185.36328,286.464845 185.135418,286.643879 184.875,286.806641 C184.614582,286.969402 184.321616,287.050781 183.996094,287.050781 L183.800781,287.050781 C183.540363,287.050781 183.279949,287.001954 183.019531,286.904297 C182.759113,286.80664 182.531251,286.660157 182.335938,286.464844 L167.785156,271.914062 C167.589843,271.718749 167.459636,271.507163 167.394531,271.279297 C167.329427,271.051431 167.296875,270.807293 167.296875,270.546875 C167.296875,269.960935 167.492186,269.456382 167.882812,269.033203 C168.273439,268.610024 168.761716,268.398438 169.347656,268.398438 C169.608074,268.398438 169.852212,268.447265 170.080078,268.544922 C170.307944,268.642579 170.51953,268.789062 170.714844,268.984375 L183.605469,281.777344 L205.089844,252.480469 Z" id="success"></path>
        </g>
    </g>
</svg>